<svg xmlns="http://www.w3.org/2000/svg" xmlns:xlink="http://www.w3.org/1999/xlink" viewBox="0 0 1920 1080"><defs><style>.cls-1,.cls-2{fill:none;}.cls-2{stroke:#462783;stroke-miterlimit:10;}.cls-3{opacity:0.3;}.cls-4{fill:url(#New_Pattern);}</style><pattern id="New_Pattern" data-name="New Pattern" width="130.39" height="124.72" patternTransform="matrix(1.94, 0, 0, -1.94, -14.12, 1246.03)" patternUnits="userSpaceOnUse" viewBox="0 0 130.39 124.72"><rect class="cls-1" width="130.39" height="124.72"/><rect class="cls-1" width="130.39" height="124.72"/><polygon class="cls-2" points="203.35 -0.01 162.99 -40.36 122.64 -0.01 162.99 40.35 203.35 -0.01"/><polygon class="cls-2" points="138.15 -0.01 97.8 -40.36 57.44 -0.01 97.8 40.35 138.15 -0.01"/><polygon class="cls-2" points="121.46 -0.01 97.8 -23.67 74.13 -0.01 97.8 23.66 121.46 -0.01"/><polygon class="cls-2" points="105.72 -0.01 97.8 -7.93 89.87 -0.01 97.8 7.92 105.72 -0.01"/><polygon class="cls-2" points="72.96 -0.01 32.6 -40.36 -7.76 -0.01 32.6 40.35 72.96 -0.01"/><polygon class="cls-2" points="56.26 -0.01 32.6 -23.67 8.94 -0.01 32.6 23.66 56.26 -0.01"/><polygon class="cls-2" points="40.52 -0.01 32.6 -7.93 24.67 -0.01 32.6 7.92 40.52 -0.01"/><polygon class="cls-2" points="7.76 -0.01 -32.6 -40.36 -72.96 -0.01 -32.6 40.35 7.76 -0.01"/><polygon class="cls-2" points="170.75 62.36 130.39 22 90.04 62.36 130.39 102.71 170.75 62.36"/><polygon class="cls-2" points="154.06 62.36 130.39 38.69 106.73 62.36 130.39 86.02 154.06 62.36"/><polygon class="cls-2" points="138.32 62.36 130.39 54.43 122.47 62.36 130.39 70.28 138.32 62.36"/><polygon class="cls-2" points="105.56 62.36 65.2 22 24.84 62.36 65.2 102.71 105.56 62.36"/><polygon class="cls-2" points="88.86 62.36 65.2 38.69 41.53 62.36 65.2 86.02 88.86 62.36"/><polygon class="cls-2" points="73.12 62.36 65.2 54.43 57.27 62.36 65.2 70.28 73.12 62.36"/><polygon class="cls-2" points="40.36 62.36 0 22 -40.36 62.36 0 102.71 40.36 62.36"/><polygon class="cls-2" points="23.66 62.36 0 38.69 -23.66 62.36 0 86.02 23.66 62.36"/><polygon class="cls-2" points="7.93 62.36 0 54.43 -7.93 62.36 0 70.28 7.93 62.36"/><polygon class="cls-2" points="203.35 124.72 162.99 84.36 122.64 124.72 162.99 165.08 203.35 124.72"/><polygon class="cls-2" points="138.15 124.72 97.8 84.36 57.44 124.72 97.8 165.08 138.15 124.72"/><polygon class="cls-2" points="121.46 124.72 97.8 101.06 74.13 124.72 97.8 148.38 121.46 124.72"/><polygon class="cls-2" points="105.72 124.72 97.8 116.79 89.87 124.72 97.8 132.64 105.72 124.72"/><polygon class="cls-2" points="72.96 124.72 32.6 84.36 -7.76 124.72 32.6 165.08 72.96 124.72"/><polygon class="cls-2" points="56.26 124.72 32.6 101.06 8.94 124.72 32.6 148.38 56.26 124.72"/><polygon class="cls-2" points="40.52 124.72 32.6 116.79 24.67 124.72 32.6 132.64 40.52 124.72"/><polygon class="cls-2" points="7.76 124.72 -32.6 84.36 -72.96 124.72 -32.6 165.08 7.76 124.72"/></pattern></defs><g id="Layer_2" data-name="Layer 2"><g id="Layer_1-2" data-name="Layer 1"><g id="Layer_2-2" data-name="Layer 2" class="cls-3"><g id="Layer_1-2-2" data-name="Layer 1-2"><rect class="cls-4" width="1920" height="1080"/></g></g></g></g></svg>