<svg xmlns="http://www.w3.org/2000/svg" xmlns:xlink="http://www.w3.org/1999/xlink" viewBox="0 0 1920 1080"><defs><style>.cls-1,.cls-2{fill:none;}.cls-2{stroke:#462783;stroke-miterlimit:10;}.cls-3{fill:url(#New_Pattern);}</style><pattern id="New_Pattern" data-name="New Pattern" width="130.39" height="124.72" patternTransform="translate(-14.12 -166.03) scale(1.94)" patternUnits="userSpaceOnUse" viewBox="0 0 130.39 124.72"><rect class="cls-1" width="130.39" height="124.72"/><polygon class="cls-2" points="203.35 124.73 162.99 165.08 122.64 124.73 162.99 84.37 203.35 124.73"/><polygon class="cls-2" points="138.15 124.73 97.8 165.08 57.44 124.73 97.8 84.37 138.15 124.73"/><polygon class="cls-2" points="121.46 124.73 97.8 148.39 74.13 124.73 97.8 101.06 121.46 124.73"/><polygon class="cls-2" points="105.72 124.73 97.8 132.65 89.87 124.73 97.8 116.8 105.72 124.73"/><polygon class="cls-2" points="72.96 124.73 32.6 165.08 -7.76 124.73 32.6 84.37 72.96 124.73"/><polygon class="cls-2" points="56.26 124.73 32.6 148.39 8.94 124.73 32.6 101.06 56.26 124.73"/><polygon class="cls-2" points="40.52 124.73 32.6 132.65 24.67 124.73 32.6 116.8 40.52 124.73"/><polygon class="cls-2" points="7.76 124.73 -32.6 165.08 -72.96 124.73 -32.6 84.37 7.76 124.73"/><polygon class="cls-2" points="170.75 62.36 130.39 102.72 90.04 62.36 130.39 22.01 170.75 62.36"/><polygon class="cls-2" points="154.06 62.36 130.39 86.03 106.73 62.36 130.39 38.7 154.06 62.36"/><polygon class="cls-2" points="138.32 62.36 130.39 70.29 122.47 62.36 130.39 54.44 138.32 62.36"/><polygon class="cls-2" points="105.56 62.36 65.2 102.72 24.84 62.36 65.2 22.01 105.56 62.36"/><polygon class="cls-2" points="88.86 62.36 65.2 86.03 41.53 62.36 65.2 38.7 88.86 62.36"/><polygon class="cls-2" points="73.12 62.36 65.2 70.29 57.27 62.36 65.2 54.44 73.12 62.36"/><polygon class="cls-2" points="40.36 62.36 0 102.72 -40.36 62.36 0 22.01 40.36 62.36"/><polygon class="cls-2" points="23.66 62.36 0 86.03 -23.66 62.36 0 38.7 23.66 62.36"/><polygon class="cls-2" points="7.93 62.36 0 70.29 -7.93 62.36 0 54.44 7.93 62.36"/><polygon class="cls-2" points="203.35 0 162.99 40.36 122.64 0 162.99 -40.36 203.35 0"/><polygon class="cls-2" points="138.15 0 97.8 40.36 57.44 0 97.8 -40.36 138.15 0"/><polygon class="cls-2" points="121.46 0 97.8 23.66 74.13 0 97.8 -23.66 121.46 0"/><polygon class="cls-2" points="105.72 0 97.8 7.93 89.87 0 97.8 -7.92 105.72 0"/><polygon class="cls-2" points="72.96 0 32.6 40.36 -7.76 0 32.6 -40.36 72.96 0"/><polygon class="cls-2" points="56.26 0 32.6 23.66 8.94 0 32.6 -23.66 56.26 0"/><polygon class="cls-2" points="40.52 0 32.6 7.93 24.67 0 32.6 -7.92 40.52 0"/><polygon class="cls-2" points="7.76 0 -32.6 40.36 -72.96 0 -32.6 -40.36 7.76 0"/></pattern></defs><g id="Layer_2" data-name="Layer 2"><g id="Layer_1-2" data-name="Layer 1"><rect class="cls-3" width="1920" height="1080"/></g></g></svg>